<?xml version="1.0"?>
<svg xmlns="http://www.w3.org/2000/svg" xmlns:xlink="http://www.w3.org/1999/xlink" xmlns:svgjs="http://svgjs.com/svgjs" version="1.1" width="512" height="512" x="0" y="0" viewBox="0 0 682 682.66669" style="enable-background:new 0 0 512 512" xml:space="preserve" class=""><g><path xmlns="http://www.w3.org/2000/svg" d="m604.511719 370.996094h-19.671875c-4.453125-17.394532-11.414063-34.183594-20.574219-49.648438l13.917969-13.917968c7.324218-7.316407 7.324218-19.1875 0-26.511719l-39.914063-39.910157c-3.515625-3.515624-8.28125-5.496093-13.253906-5.496093s-9.742187 1.972656-13.257813 5.496093l-13.917968 13.914063c-15.460938-9.160156-32.25-16.113281-49.640625-20.570313v-19.671874c0-10.359376-8.394531-18.75-18.75-18.75h-56.441407c-10.355468 0-18.75 8.390624-18.75 18.75v19.671874c-17.394531 4.457032-34.179687 11.410157-49.644531 20.570313l-13.914062-13.914063c-2.761719-2.761718-6.289063-4.554687-10.085938-5.207031-14.210937-18.175781-32.761719-32.148437-53.613281-40.871093 23.472656-20.375 38.339844-50.417969 38.339844-83.871094 0-61.238282-49.824219-111.058594-111.058594-111.058594s-111.058594 49.820312-111.058594 111.058594c0 33.4375 14.859375 63.472656 38.316406 83.847656-47.996093 20.128906-81.789062 67.589844-81.789062 122.796875v152.867187c0 10.359376 8.394531 18.75 18.75 18.75h207.183594c3.539062 8.710938 7.714844 17.167969 12.5 25.257813l-13.910156 13.917969c-7.324219 7.324218-7.324219 19.195312 0 26.519531l39.910156 39.90625c7.320312 7.324219 19.191406 7.324219 26.515625 0l13.914062-13.910156c15.464844 9.152343 32.257813 16.105469 49.644531 20.566406v19.671875c0 10.355469 8.394532 18.75 18.75 18.75h56.441407c10.355469 0 18.75-8.394531 18.75-18.75v-19.671875c17.390625-4.460937 34.179687-11.414063 49.648437-20.566406l13.910156 13.910156c7.324219 7.324219 19.195313 7.324219 26.519532 0l39.90625-39.90625c7.324218-7.324219 7.324218-19.195313 0-26.519531l-13.910156-13.917969c9.152343-15.460937 16.113281-32.253906 20.566406-49.640625h19.671875c10.355469 0 18.75-8.398438 18.75-18.75v-56.441406c0-10.355469-8.394531-18.75-18.75-18.75zm-450.230469-333.496094c40.5625 0 73.558594 33 73.558594 73.558594 0 40.5625-32.996094 73.558594-73.558594 73.558594-40.554688 0-73.558594-32.996094-73.558594-73.558594 0-40.558594 32.996094-73.558594 73.558594-73.558594zm-117.03125 280.203125c0-52.703125 42.882812-95.585937 95.585938-95.585937h42.890624c28.304688 0 55.117188 12.632812 73.207032 34.136718l-24.660156 24.664063c-7.324219 7.320312-7.324219 19.195312 0 26.511719l13.910156 13.917968c-9.152344 15.464844-16.109375 32.253906-20.566406 49.648438h-19.671876c-10.359374 0-18.75 8.394531-18.75 18.75v56.441406c0 1.960938.300782 3.851562.863282 5.632812h-142.808594zm548.511719 109.734375h-16.113281c-9.164063 0-16.992188 6.628906-18.496094 15.671875-3.753906 22.59375-12.792969 44.414063-26.136719 63.09375-5.328125 7.460937-4.484375 17.671875 2 24.152344l11.390625 11.398437-13.390625 13.394532-11.394531-11.394532c-6.484375-6.484375-16.699219-7.328125-24.152344-2-18.683594 13.34375-40.5 22.382813-63.097656 26.136719-9.042969 1.503906-15.671875 9.332031-15.671875 18.496094v16.113281h-18.941407v-16.113281c0-9.164063-6.632812-16.988281-15.675781-18.496094-22.597656-3.753906-44.414062-12.796875-63.09375-26.136719-7.460937-5.328125-17.675781-4.484375-24.15625 2l-11.390625 11.394532-13.394531-13.394532 11.390625-11.398437c6.480469-6.480469 7.324219-16.691407 2.003906-24.152344-13.34375-18.679687-22.382812-40.496094-26.144531-63.09375-1.503906-9.042969-9.324219-15.671875-18.496094-15.671875h-16.105469v-18.941406h16.105469c9.171875 0 16.992188-6.628906 18.496094-15.675782 3.761719-22.59375 12.800781-44.414062 26.144531-63.097656 5.328125-7.457031 4.476563-17.671875-2.003906-24.15625l-11.390625-11.390625 13.394531-13.394531 11.390625 11.390625c6.480469 6.484375 16.695313 7.328125 24.15625 2.003906 18.679688-13.347656 40.496094-22.382812 63.09375-26.136719 9.042969-1.511718 15.675781-9.332031 15.675781-18.5v-16.109374h18.941407v16.109374c0 9.167969 6.628906 16.992188 15.671875 18.5 22.59375 3.753907 44.414062 12.789063 63.089844 26.136719 7.460937 5.324219 17.683593 4.480469 24.160156-2.003906l11.394531-11.390625 13.390625 13.394531-11.390625 11.390625c-6.484375 6.484375-7.328125 16.699219-2 24.160156 13.34375 18.675782 22.382813 40.5 26.136719 63.09375 1.503906 9.046876 9.332031 15.675782 18.496094 15.675782h16.113281zm0 0" fill="#ffffff" data-original="#000000" style=""/><path xmlns="http://www.w3.org/2000/svg" d="m401.226562 317.207031c-55.558593 0-100.753906 45.199219-100.753906 100.757813 0 55.554687 45.195313 100.753906 100.753906 100.753906 55.558594 0 100.753907-45.199219 100.753907-100.753906 0-55.558594-45.195313-100.757813-100.753907-100.757813zm0 164.011719c-34.878906 0-63.253906-28.375-63.253906-63.253906s28.375-63.253906 63.253906-63.253906c34.882813 0 63.253907 28.375 63.253907 63.253906s-28.371094 63.253906-63.253907 63.253906zm0 0" fill="#ffffff" data-original="#000000" style=""/></g></svg>
