<?xml version="1.0"?>
<svg xmlns="http://www.w3.org/2000/svg" height="512px" viewBox="-37 0 512 512.00039" width="512px"><g><path d="m182.234375 489.132812c-47.3125-93.792968-71.304687-156.121093-71.304687-185.246093 0-59.808594 48.65625-108.464844 108.464843-108.464844 59.804688 0 108.460938 48.65625 108.460938 108.464844 0 29.125-23.988281 91.453125-71.304688 185.246093-15.378906 30.492188-58.9375 30.488282-74.316406 0zm37.160156-262.542968c-42.621093 0-77.296875 34.671875-77.296875 77.296875 0 23.179687 24.773438 85.585937 67.964844 171.210937 3.875 7.679688 14.789062 7.679688 18.664062 0 43.191407-85.625 67.964844-148.03125 67.964844-171.210937 0-42.625-34.675781-77.296875-77.296875-77.296875zm0 0" data-original="#000000" class="active-path" data-old_color="#000000" fill="#FFFFFF"/><path d="m219.394531 358.632812c-30.1875 0-54.746093-24.558593-54.746093-54.746093 0-30.191407 24.558593-54.75 54.746093-54.75s54.746094 24.558593 54.746094 54.75c0 30.1875-24.558594 54.746093-54.746094 54.746093zm0-78.328124c-13.003906 0-23.582031 10.578124-23.582031 23.582031 0 13 10.578125 23.578125 23.582031 23.578125 13 0 23.582031-10.578125 23.582031-23.578125 0-13.003907-10.578124-23.582031-23.582031-23.582031zm0 0" data-original="#000000" class="active-path" data-old_color="#000000" fill="#FFFFFF"/><path d="m339.097656 199.765625c-3.988281 0-7.976562-1.519531-11.015625-4.566406-59.929687-59.929688-157.441406-59.929688-217.371093 0-6.085938 6.085937-15.953126 6.085937-22.039063 0-6.085937-6.085938-6.085937-15.949219 0-22.035157 72.082031-72.082031 189.367187-72.082031 261.445313 0 6.085937 6.085938 6.085937 15.949219 0 22.035157-3.042969 3.042969-7.03125 4.566406-11.019532 4.566406zm0 0" data-original="#000000" class="active-path" data-old_color="#000000" fill="#FFFFFF"/><path d="m382.214844 156.648438c-3.988282 0-7.976563-1.523438-11.015625-4.566407-83.707031-83.703125-219.902344-83.703125-303.605469 0-6.085938 6.085938-15.953125 6.085938-22.039062 0-6.085938-6.085937-6.085938-15.953125 0-22.039062 96.078124-96.074219 251.589843-96.089844 347.679687 0 6.085937 6.085937 6.085937 15.953125 0 22.039062-3.042969 3.042969-7.03125 4.566407-11.019531 4.566407zm0 0" data-original="#000000" class="active-path" data-old_color="#000000" fill="#FFFFFF"/><path d="m423.207031 115.65625c-3.988281 0-7.976562-1.519531-11.019531-4.5625-106.304688-106.308594-279.277344-106.308594-385.585938 0-6.082031 6.085938-15.949218 6.085938-22.035156 0-6.085937-6.085938-6.085937-15.953125 0-22.039062 118.726563-118.730469 310.914063-118.746094 429.660156 0 6.085938 6.085937 6.085938 15.953124 0 22.039062-3.042968 3.042969-7.03125 4.5625-11.019531 4.5625zm0 0" data-original="#000000" class="active-path" data-old_color="#000000" fill="#FFFFFF"/></g> </svg>
